<svg id="37eb8bde-9a0f-4271-91c1-9c5c8722239c" data-name="vivlodex-logo-ko" xmlns="http://www.w3.org/2000/svg" viewBox="0 0 101.17 53.72"><title>vivlodex-logo-ko</title><rect x="0.21" y="36.49" width="97.29" height="0.33" style="fill:#fff"/><path d="M8.47,44.9l0.46,2L9,47.48l0.1-.55,0.4-2h0.77l0.42,2,0.11,0.56,0.11-.54,0.47-2h0.75l-1,3.51h-0.7L10,46.36l-0.12-.68-0.12.68L9.37,48.42H8.69l-1-3.51H8.47Z" transform="translate(-0.42 -0.14)" style="fill:#fff"/><path d="M13.52,48.42H12.79V44.9h0.73v3.51Z" transform="translate(-0.42 -0.14)" style="fill:#fff"/><path d="M17,44.9v0.62H16v2.89H15.21V45.53H14.16V44.9H17Z" transform="translate(-0.42 -0.14)" style="fill:#fff"/><path d="M17.67,48.42V44.9H18.4v1.34h1.37V44.9H20.5v3.51H19.77V46.85H18.4v1.57H17.67Z" transform="translate(-0.42 -0.14)" style="fill:#fff"/><circle cx="33.07" cy="46.7" r="0.92" transform="translate(-21.74 64.34) rotate(-72.8)" style="fill:#fff"/><ellipse cx="32.19" cy="44.37" rx="0.92" ry="0.68" transform="translate(-20.07 62.03) rotate(-72.99)" style="fill:#fff"/><ellipse cx="33.89" cy="48.86" rx="0.92" ry="0.68" transform="translate(-23.49 65.79) rotate(-71.93)" style="fill:#fff"/><ellipse cx="33.18" cy="51.46" rx="0.92" ry="0.54" transform="matrix(0.84, -0.54, 0.54, 0.84, -23, 26.04)" style="fill:#fff"/><ellipse cx="32.83" cy="41.94" rx="0.92" ry="0.54" transform="translate(-18.49 26.12) rotate(-34.82)" style="fill:#fff"/><ellipse cx="34.73" cy="39.93" rx="0.72" ry="0.4" transform="translate(-13.92 18.01) rotate(-24.69)" style="fill:#fff"/><ellipse cx="31.41" cy="53.39" rx="0.72" ry="0.4" transform="translate(-20.04 18.15) rotate(-25.01)" style="fill:#fff"/><ellipse cx="30.77" cy="45.63" rx="0.68" ry="0.92" transform="matrix(0.83, -0.56, 0.56, 0.83, -20.79, 25.16)" style="fill:#fff"/><ellipse cx="34.08" cy="44.46" rx="0.92" ry="0.68" transform="translate(-19.79 27.56) rotate(-35.12)" style="fill:#fff"/><ellipse cx="35.36" cy="45.86" rx="0.68" ry="0.92" transform="translate(-18.97 66.86) rotate(-73.78)" style="fill:#fff"/><ellipse cx="35.34" cy="47.63" rx="0.68" ry="0.92" transform="translate(-20.76 27.06) rotate(-33.28)" style="fill:#fff"/><ellipse cx="32" cy="48.74" rx="0.92" ry="0.68" transform="translate(-22.22 26.15) rotate(-34.07)" style="fill:#fff"/><ellipse cx="30.75" cy="47.31" rx="0.68" ry="0.92" transform="translate(-23.97 62.48) rotate(-72.72)" style="fill:#fff"/><ellipse cx="37.84" cy="46.49" rx="0.54" ry="0.92" transform="translate(-19.72 28.25) rotate(-33.28)" style="fill:#fff"/><ellipse cx="36.53" cy="49.93" rx="0.92" ry="0.54" transform="translate(-17.49 80.68) rotate(-83.75)" style="fill:#fff"/><ellipse cx="29.75" cy="50.12" rx="0.54" ry="0.92" transform="translate(-23.93 73.66) rotate(-83.28)" style="fill:#fff"/><ellipse cx="28.25" cy="46.47" rx="0.54" ry="0.92" transform="translate(-21.23 22.88) rotate(-33.15)" style="fill:#fff"/><ellipse cx="29.57" cy="43.34" rx="0.92" ry="0.54" transform="translate(-17.21 67.77) rotate(-83.63)" style="fill:#fff"/><ellipse cx="36.31" cy="43.15" rx="0.54" ry="0.92" transform="translate(-10.1 75.66) rotate(-85.29)" style="fill:#fff"/><ellipse cx="38.95" cy="43.14" rx="0.4" ry="0.72" transform="translate(-16 63.12) rotate(-68.18)" style="fill:#fff"/><ellipse cx="39.8" cy="48.45" rx="0.4" ry="0.72" transform="translate(-16.58 20.03) rotate(-23.79)" style="fill:#fff"/><ellipse cx="36.52" cy="52.62" rx="0.72" ry="0.4" transform="translate(-26.54 65.85) rotate(-67.29)" style="fill:#fff"/><ellipse cx="27.17" cy="50.2" rx="0.4" ry="0.72" transform="translate(-29.91 56.96) rotate(-68.51)" style="fill:#fff"/><ellipse cx="26.27" cy="44.88" rx="0.4" ry="0.72" transform="translate(-16.69 14.84) rotate(-24.56)" style="fill:#fff"/><ellipse cx="29.49" cy="40.67" rx="0.72" ry="0.4" transform="translate(-19.67 52.68) rotate(-68.06)" style="fill:#fff"/><path d="M42.81,45H44a0.76,0.76,0,0,0,.88.64,0.78,0.78,0,0,0,.85-0.55c0-.6-1.08-0.64-1.39-0.7a1.48,1.48,0,0,1-1.47-1.23,1.78,1.78,0,0,1,2-1.5c1.31,0,2,.67,2,1.29H45.65c0-.11-0.19-0.36-0.8-0.36a0.68,0.68,0,0,0-.75.57c0,0.38.73,0.38,1,.42,0.65,0.12,1.88.28,1.88,1.51a1.87,1.87,0,0,1-2.06,1.48A1.86,1.86,0,0,1,42.81,45Z" transform="translate(-0.42 -0.14)" style="fill:#fff"/><path d="M53.56,44.41a2.12,2.12,0,1,1-2.12-2.12A2.12,2.12,0,0,1,53.56,44.41Zm-0.93,0a1.19,1.19,0,1,0-1.19,1.19A1.19,1.19,0,0,0,52.63,44.41Z" transform="translate(-0.42 -0.14)" style="fill:#fff"/><path d="M59.07,45.45v1H55.58v-4h1v3.06h2.52Z" transform="translate(-0.42 -0.14)" style="fill:#fff"/><path d="M65,42.39v2a2,2,0,1,1-4.09,0v-2h1v2a1.07,1.07,0,1,0,2.12,0v-2h1Z" transform="translate(-0.42 -0.14)" style="fill:#fff"/><path d="M72,41.75v4.67H70.87V44l-1.1,2.38H69.28l-1.08-2.36v2.36H67.08V41.75h1.13v0l1.32,2.62,1.34-2.64H72Z" transform="translate(-0.42 -0.14)" style="fill:#fff"/><path d="M77.48,45.86H75.53l-0.27.55H74.17l2-4H76.9l1.92,4H77.76Zm-0.38-.79-0.6-1.29-0.57,1.29h1.17Z" transform="translate(-0.42 -0.14)" style="fill:#fff"/><path d="M83.42,43.26H81.9v3.16h-1V43.26H79.4V42.39h4v0.87Z" transform="translate(-0.42 -0.14)" style="fill:#fff"/><path d="M87.81,46.41l-0.66-1H86.44v1h-1v-4h2A1.5,1.5,0,0,1,88.86,44a1.33,1.33,0,0,1-.72,1.23L89,46.41H87.81Zm-1.37-1.89h0.82a0.56,0.56,0,0,0,.6-0.55,0.59,0.59,0,0,0-.59-0.59H86.44v1.15Z" transform="translate(-0.42 -0.14)" style="fill:#fff"/><path d="M91.94,42.39v4H91v-4h1Z" transform="translate(-0.42 -0.14)" style="fill:#fff"/><path d="M96.68,44.4L98,45.78l-0.74.74L96,45.15l-1.39,1.37-0.74-.74,1.38-1.39L93.83,43l0.74-.74L96,43.65l1.36-1.37L98,43Z" transform="translate(-0.42 -0.14)" style="fill:#fff"/><path d="M45.49,49.07h-1v2.08h-0.6V49.07H43V48.5h2.52v0.57Z" transform="translate(-0.42 -0.14)" style="fill:#fff"/><path d="M49.47,49.07v0.47h1V50.1h-1v0.47h1.29v0.57H48.86V48.5h1.89v0.57H49.47Z" transform="translate(-0.42 -0.14)" style="fill:#fff"/><path d="M56.45,50.65a1.3,1.3,0,0,1-1.07.57,1.4,1.4,0,0,1,0-2.79,1.3,1.3,0,0,1,1.07.57L56,49.3A0.85,0.85,0,0,0,55.38,49a0.78,0.78,0,0,0,0,1.57A0.84,0.84,0,0,0,56,50.34Z" transform="translate(-0.42 -0.14)" style="fill:#fff"/><path d="M62.22,48.5v2.65h-0.6v-1h-1.1v1h-0.6V48.5h0.6V49.6h1.1V48.5h0.6Z" transform="translate(-0.42 -0.14)" style="fill:#fff"/><path d="M68.35,48.5v2.65h-0.6l-1.25-1.58v1.58h-0.6V48.5h0.6l1.25,1.65V48.5h0.6Z" transform="translate(-0.42 -0.14)" style="fill:#fff"/><path d="M74.51,49.82a1.33,1.33,0,1,1-1.32-1.4A1.36,1.36,0,0,1,74.51,49.82Zm-0.58,0a0.75,0.75,0,1,0-.74.78A0.77,0.77,0,0,0,73.93,49.82Z" transform="translate(-0.42 -0.14)" style="fill:#fff"/><path d="M80.16,50.51v0.64H78V48.5h0.6v2h1.58Z" transform="translate(-0.42 -0.14)" style="fill:#fff"/><path d="M86,49.82a1.33,1.33,0,1,1-1.32-1.4A1.36,1.36,0,0,1,86,49.82Zm-0.58,0a0.75,0.75,0,1,0-.74.78A0.77,0.77,0,0,0,85.46,49.82Z" transform="translate(-0.42 -0.14)" style="fill:#fff"/><path d="M91.89,50.65h0a1.3,1.3,0,0,1-1.06.56,1.4,1.4,0,0,1,0-2.79,1.22,1.22,0,0,1,1,.54l-0.46.31a0.78,0.78,0,1,0-.58,1.33,0.73,0.73,0,0,0,.54-0.24V50.08H90.6V49.57h1.29v1.07Z" transform="translate(-0.42 -0.14)" style="fill:#fff"/><path d="M97.92,48.5L96.86,50v1.12H96.11V50L95,48.5H95.8l0.69,1,0.68-1h0.75Z" transform="translate(-0.42 -0.14)" style="fill:#fff"/><path d="M99,48.66H98.72v0.59H98.55V48.66H98.28V48.5H99v0.16Z" transform="translate(-0.42 -0.14)" style="fill:#fff"/><path d="M99.87,48.5v0.75H99.7V48.87l-0.17.38H99.46l-0.16-.38v0.38H99.13V48.5H99.3l0.2,0.42,0.2-.42h0.17Z" transform="translate(-0.42 -0.14)" style="fill:#fff"/><path d="M2.38,33a9.48,9.48,0,0,1,0-11.51l1.13,0.65a9.25,9.25,0,0,0,0,10.2Z" transform="translate(-0.42 -0.14)" style="fill:#fff"/><path d="M7.54,31.07V26.8A0.42,0.42,0,0,0,7,26.31a4.23,4.23,0,0,0-1.6.52v4.25H3.92V25H5.09l0.15,0.52a6.13,6.13,0,0,1,2.45-.64,1.16,1.16,0,0,1,1.16.65,6,6,0,0,1,2.46-.65c1,0,1.38.72,1.38,1.81v4.44H11.16V26.8a0.42,0.42,0,0,0-.49-0.49,4.05,4.05,0,0,0-1.6.52v4.25H7.54Z" transform="translate(-0.42 -0.14)" style="fill:#fff"/><path d="M16.25,29.94a6.41,6.41,0,0,0,1.87-.29l0.24,1.16a6.57,6.57,0,0,1-2.25.39c-1.92,0-2.59-.89-2.59-2.36V27.21c0-1.29.58-2.39,2.54-2.39s2.4,1.14,2.4,2.46V28.6H15.05v0.31C15.05,29.65,15.32,29.94,16.25,29.94Zm-1.19-2.58H17v-0.3a0.82,0.82,0,0,0-.93-1,0.88,0.88,0,0,0-1,1v0.3Z" transform="translate(-0.42 -0.14)" style="fill:#fff"/><path d="M19.25,31.07V22.45l1.53-.21v8.83H19.25Z" transform="translate(-0.42 -0.14)" style="fill:#fff"/><path d="M24.34,31.2c-2.1,0-2.66-1.16-2.66-2.41V27.24c0-1.26.57-2.41,2.66-2.41S27,26,27,27.24v1.55C27,30,26.44,31.2,24.34,31.2Zm0-5.06a1,1,0,0,0-1.13,1.06v1.65a1,1,0,0,0,1.13,1.06,1,1,0,0,0,1.13-1.06V27.19A1,1,0,0,0,24.34,26.13Z" transform="translate(-0.42 -0.14)" style="fill:#fff"/><path d="M27.17,31.07l2-3.08L27.2,25h1.53L30,26.81,31.16,25h1.53l-1.93,3,2,3.08H31.17L30,29.17l-1.23,1.9H27.17Z" transform="translate(-0.42 -0.14)" style="fill:#fff"/><path d="M33.18,24.08V22.31h1.53v1.77H33.18Zm0,7V25h1.53v6.12H33.18Z" transform="translate(-0.42 -0.14)" style="fill:#fff"/><path d="M35.61,28.85V27.18c0-1.65.72-2.35,2.64-2.35a5.27,5.27,0,0,1,1.5.23l-0.19,1.26a5.57,5.57,0,0,0-1.27-.16c-0.88,0-1.14.26-1.14,1v1.7c0,0.75.26,1,1.14,1a5.17,5.17,0,0,0,1.27-.16L39.74,31a5,5,0,0,1-1.5.23C36.32,31.2,35.61,30.49,35.61,28.85Z" transform="translate(-0.42 -0.14)" style="fill:#fff"/><path d="M45.09,31.07H43.84l-0.11-.41a3.35,3.35,0,0,1-1.82.54,1.56,1.56,0,0,1-1.6-1.82,1.49,1.49,0,0,1,1.78-1.72h1.47V27c0-.68-0.19-0.92-1.17-0.92a8.56,8.56,0,0,0-1.7.19l-0.19-1.17a8,8,0,0,1,2.1-.29c1.92,0,2.49.68,2.49,2.21v4Zm-1.53-2.31H42.43c-0.5,0-.64.14-0.64,0.6a0.51,0.51,0,0,0,.62.62,2.41,2.41,0,0,0,1.16-.31v-0.9Z" transform="translate(-0.42 -0.14)" style="fill:#fff"/><path d="M49.76,31.07V26.8a0.42,0.42,0,0,0-.49-0.49,4.23,4.23,0,0,0-1.6.52v4.25H46.14V25h1.17l0.15,0.52a6.13,6.13,0,0,1,2.45-.64,1.16,1.16,0,0,1,1.16.65,6,6,0,0,1,2.46-.65c1,0,1.38.72,1.38,1.81v4.44H53.37V26.8a0.42,0.42,0,0,0-.49-0.49,4.05,4.05,0,0,0-1.6.52v4.25H49.76Z" transform="translate(-0.42 -0.14)" style="fill:#fff"/><path d="M55.39,32.35a9.25,9.25,0,0,0,0-10.2l1.13-.65a9.48,9.48,0,0,1,0,11.51Z" transform="translate(-0.42 -0.14)" style="fill:#fff"/><path d="M61.4,28.85V27.18c0-1.65.72-2.35,2.64-2.35a5.28,5.28,0,0,1,1.5.23l-0.19,1.26a5.58,5.58,0,0,0-1.27-.16c-0.88,0-1.14.26-1.14,1v1.7c0,0.75.26,1,1.14,1a5.17,5.17,0,0,0,1.27-.16L65.54,31a5,5,0,0,1-1.5.23C62.12,31.2,61.4,30.49,61.4,28.85Z" transform="translate(-0.42 -0.14)" style="fill:#fff"/><path d="M70.89,31.07H69.63l-0.11-.41a3.35,3.35,0,0,1-1.82.54,1.56,1.56,0,0,1-1.6-1.82,1.49,1.49,0,0,1,1.78-1.72h1.47V27c0-.68-0.19-0.92-1.17-0.92a8.56,8.56,0,0,0-1.7.19L66.3,25.12a8,8,0,0,1,2.1-.29c1.92,0,2.49.68,2.49,2.21v4Zm-1.53-2.31H68.23c-0.5,0-.64.14-0.64,0.6a0.51,0.51,0,0,0,.62.62,2.41,2.41,0,0,0,1.16-.31v-0.9Z" transform="translate(-0.42 -0.14)" style="fill:#fff"/><path d="M77.12,29a1.86,1.86,0,0,1-2,2.16A8.45,8.45,0,0,1,73.47,31v2.53l-1.53.21V25h1.22l0.15,0.52a3.22,3.22,0,0,1,1.93-.64c1.23,0,1.88.73,1.88,2.12V29Zm-3.66.69a6.8,6.8,0,0,0,1.36.16,0.68,0.68,0,0,0,.77-0.82V26.91a0.66,0.66,0,0,0-.75-0.78,2.17,2.17,0,0,0-1.37.55v3Z" transform="translate(-0.42 -0.14)" style="fill:#fff"/><path d="M79.94,31.2a7.22,7.22,0,0,1-2.11-.35L78,29.68a6.85,6.85,0,0,0,1.82.26c0.68,0,.78-0.15.78-0.62s-0.08-.57-1.07-0.8c-1.5-.36-1.67-0.74-1.67-1.92s0.54-1.77,2.29-1.77A8.05,8.05,0,0,1,82,25l-0.15,1.22a10.78,10.78,0,0,0-1.68-.18c-0.67,0-.78.15-0.78,0.53s0,0.53.87,0.74c1.71,0.45,1.87.68,1.87,1.93S81.78,31.2,79.94,31.2Z" transform="translate(-0.42 -0.14)" style="fill:#fff"/><path d="M84.53,25v4.27a0.42,0.42,0,0,0,.49.49,4.23,4.23,0,0,0,1.6-.52V25h1.53v6.12H87l-0.15-.52a6.13,6.13,0,0,1-2.45.64c-1,0-1.38-.72-1.38-1.81V25h1.53Z" transform="translate(-0.42 -0.14)" style="fill:#fff"/><path d="M89.32,31.07V22.45l1.53-.21v8.83H89.32Z" transform="translate(-0.42 -0.14)" style="fill:#fff"/><path d="M94.47,29.94a6.41,6.41,0,0,0,1.87-.29l0.24,1.16a6.57,6.57,0,0,1-2.25.39c-1.92,0-2.59-.89-2.59-2.36V27.21c0-1.29.58-2.39,2.54-2.39s2.4,1.14,2.4,2.46V28.6H93.28v0.31C93.28,29.65,93.54,29.94,94.47,29.94Zm-1.19-2.58h1.95v-0.3a0.82,0.82,0,0,0-.93-1,0.88,0.88,0,0,0-1,1v0.3Z" transform="translate(-0.42 -0.14)" style="fill:#fff"/><path d="M99.37,31.2a7.22,7.22,0,0,1-2.11-.35l0.21-1.17a6.84,6.84,0,0,0,1.82.26c0.68,0,.78-0.15.78-0.62S100,28.76,99,28.52c-1.5-.36-1.67-0.74-1.67-1.92s0.54-1.77,2.29-1.77a8.05,8.05,0,0,1,1.83.21l-0.15,1.22a10.79,10.79,0,0,0-1.68-.18c-0.67,0-.78.15-0.78,0.53s0,0.53.87,0.74c1.71,0.45,1.87.68,1.87,1.93S101.22,31.2,99.37,31.2Z" transform="translate(-0.42 -0.14)" style="fill:#fff"/><path d="M81.25,16.32l-0.37-.7,1.35-.78H83v4.73H82.14V15.83Z" transform="translate(-0.42 -0.14)" style="fill:#fff"/><path d="M87.07,18.34c0,0.73-.39,1.31-1.58,1.31s-1.58-.58-1.58-1.31V16.08c0-.73.39-1.31,1.58-1.31s1.58,0.58,1.58,1.31v2.26Zm-2.27-.09c0,0.42.12,0.62,0.69,0.62s0.69-.19.69-0.62V16.17c0-.42-0.12-0.62-0.69-0.62s-0.69.19-.69,0.62v2.08Z" transform="translate(-0.42 -0.14)" style="fill:#fff"/><path d="M91.35,19.57V17.08a0.25,0.25,0,0,0-.29-0.29,2.46,2.46,0,0,0-.93.3v2.48H89.24V16h0.68L90,16.31a3.57,3.57,0,0,1,1.43-.37,0.68,0.68,0,0,1,.67.38,3.5,3.5,0,0,1,1.44-.38A0.84,0.84,0,0,1,94.35,17v2.59H93.46V17.08a0.25,0.25,0,0,0-.29-0.29,2.36,2.36,0,0,0-.93.3v2.48H91.35Z" transform="translate(-0.42 -0.14)" style="fill:#fff"/><path d="M95.9,19.54a1,1,0,0,1-1.08-1.22V17.38c0-.86.26-1.44,1.64-1.44a8.06,8.06,0,0,1,1.38.12v3.77a1.26,1.26,0,0,1-1.51,1.26A4.93,4.93,0,0,1,95,20.9l0.12-.71a4.3,4.3,0,0,0,1.14.14c0.48,0,.66-0.15.66-0.52V19.33A2.93,2.93,0,0,1,95.9,19.54ZM97,16.72a4.05,4.05,0,0,0-.53,0,0.56,0.56,0,0,0-.7.65v1a0.39,0.39,0,0,0,.45.44A2.07,2.07,0,0,0,97,18.57V16.72Z" transform="translate(-0.42 -0.14)" style="fill:#fff"/><path d="M81.39,7.74H84V8.51H82.28V9.69l0.66,0a1,1,0,0,1,1.14,1.12v0.45c0,0.77-.28,1.25-1.59,1.25a4.56,4.56,0,0,1-1.25-.18l0.11-.73a5.36,5.36,0,0,0,1.12.12c0.67,0,.71-0.16.71-0.55V11c0-.34-0.11-0.49-0.63-0.51l-1.17,0V7.74Z" transform="translate(-0.42 -0.14)" style="fill:#fff"/><path d="M88.28,12.47V10A0.25,0.25,0,0,0,88,9.69a2.46,2.46,0,0,0-.93.3v2.48H86.17V8.9h0.68l0.09,0.3a3.57,3.57,0,0,1,1.43-.37,0.68,0.68,0,0,1,.67.38,3.5,3.5,0,0,1,1.44-.38,0.84,0.84,0,0,1,.81,1.05v2.59H90.39V10a0.25,0.25,0,0,0-.29-0.29,2.36,2.36,0,0,0-.93.3v2.48H88.28Z" transform="translate(-0.42 -0.14)" style="fill:#fff"/><path d="M92.83,12.43a1,1,0,0,1-1.08-1.22V10.27c0-.86.26-1.44,1.64-1.44A8.06,8.06,0,0,1,94.78,9v3.77A1.26,1.26,0,0,1,93.27,14,4.93,4.93,0,0,1,92,13.8l0.12-.71a4.3,4.3,0,0,0,1.14.14c0.48,0,.66-0.15.66-0.52V12.22A2.93,2.93,0,0,1,92.83,12.43Zm1.05-2.81a4.05,4.05,0,0,0-.53,0,0.56,0.56,0,0,0-.7.65v1a0.39,0.39,0,0,0,.45.44,2.07,2.07,0,0,0,.78-0.21V9.62Z" transform="translate(-0.42 -0.14)" style="fill:#fff"/><polygon points="77.37 0 72.54 6.13 70.41 6.13 75.23 0 77.37 0" style="fill:#fff"/><polygon points="67.72 0 70.41 6.13 72.54 6.13 69.85 0 67.72 0" style="fill:#fff"/><path d="M12.72,7.73h2.83l-2.1,11.85H10.6Zm12,0L21.4,14.48c-0.41.82-.84,1.89-0.89,2h0c0-.12-0.09-1.19-0.23-2L19.15,7.73h-3l2.42,11.85h2.65L27.63,7.73h-2.9Zm6.13,0H28L25.91,19.58H33l0.39-2.3H29.16Zm14.8,4.91a6.93,6.93,0,0,1-7,7.16,5,5,0,0,1-5.34-5.2,7,7,0,0,1,7-7.08C43.89,7.52,45.65,9.81,45.65,12.64Zm-3,0c0-1.6-.71-2.87-2.49-2.87-2.51,0-3.83,2.37-3.83,4.73,0,1.67.82,3,2.55,3C41.38,17.5,42.66,15.08,42.66,12.68Zm14.5-.18c0,3.81-2.53,7.08-7.65,7.08h-4l2.1-11.85h3.76C55.26,7.73,57.16,9.62,57.16,12.5Zm-3,.07c0-1.69-.89-2.56-2.87-2.56H50.1l-1.3,7.3H50C52.77,17.31,54.15,15.38,54.15,12.57Zm6.56,2h3.65l0.41-2.21H61.09l0.43-2.3h4.15l0.43-2.35h-7L57,19.58H64.1l0.43-2.35H60.22Zm9-6.85H66.84l2.49,5.73-4.75,6.12h2.87l4.73-6.08Zm7.23,0H74c-0.76,1.09-1.28,1.9-2,3l1,2.24Zm-6,8.67,1.28,3.17s2.92,0,3,0L72.78,14ZM0.42,7.74L2.84,19.58H5.52L3.35,7.74H0.42Zm8.81,0a0.11,0.11,0,0,0-.08,0l-0.3.62-0.27.54-0.28.55L8.05,10l-0.25.5L5.9,14.35l-0.25.52-0.14.3,0.67,3.6,5.88-11H9.23Z" transform="translate(-0.42 -0.14)" style="fill:#fff"/><path d="M78.72,7.68a1.31,1.31,0,0,1,1.37,1.38,1.37,1.37,0,1,1-2.74,0A1.32,1.32,0,0,1,78.72,7.68Zm0,2.49a1,1,0,0,0,1.1-1.12,1.11,1.11,0,1,0-2.21,0A1,1,0,0,0,78.72,10.17Zm0.08-.93h-0.3V9.66H78.31V8.4h0.49a0.31,0.31,0,0,1,.38.33V8.91A0.28,0.28,0,0,1,79,9.2l0.34,0.46H79.11Zm0-.68h-0.3V9.07h0.3c0.15,0,.2-0.06.2-0.16V8.72C79,8.59,78.93,8.56,78.79,8.56Z" transform="translate(-0.42 -0.14)" style="fill:#fff"/></svg>